<svg width="1024" height="1024" viewBox="0 0 1024 1024" fill="none" xmlns="http://www.w3.org/2000/svg">
<g clip-path="url(#clip0_101_58)">
<rect width="1024" height="1024" fill="white"/>
<path d="M967 464.558C967 685.173 763.406 866.116 509.5 866.116C255.594 866.116 52 685.173 52 464.558C52 243.943 255.594 63 509.5 63C763.406 63 967 243.943 967 464.558Z" fill="#1D2433" stroke="#1D2433" stroke-width="20"/>
<path d="M884 464.5C884 644.242 718.291 791 512.5 791C306.709 791 141 644.242 141 464.5C141 284.758 306.709 138 512.5 138C718.291 138 884 284.758 884 464.5Z" fill="white" stroke="#1D2433" stroke-width="10"/>
<path d="M747.915 954.404C743.468 975.259 720.585 985.93 703.382 975.17L529 866.103L660.998 804.552L792.996 743L747.915 954.404Z" fill="#1D2433"/>
<path d="M685.25 840.507C684.201 847.965 676.054 852.008 670.069 848.041L512 743.288L712.058 650L685.25 840.507Z" fill="white"/>
<rect x="943.843" y="166" width="90" height="321.806" transform="rotate(45 943.843 166)" fill="#1D2433"/>
<path d="M701.205 478.405C697.484 479.407 694.076 475.999 695.078 472.277L713.125 405.244L768.239 460.357L701.205 478.405Z" fill="#1D2433"/>
<path d="M206 481C246.417 439.667 286.833 439.667 327.25 481C367.667 522.333 408.083 522.333 448.5 481C488.917 439.667 529.333 439.667 569.75 481C610.167 522.333 650.583 522.333 691 481" stroke="#1D2433" stroke-width="70"/>
</g>
<defs>
<clipPath id="clip0_101_58">
<rect width="1024" height="1024" fill="white"/>
</clipPath>
</defs>
</svg>
